<?xml version="1.0" encoding="UTF-8"?>
<svg xmlns="http://www.w3.org/2000/svg" xmlns:xlink="http://www.w3.org/1999/xlink" width="288" height="288" viewBox="0 0 288 288">
<path fill-rule="nonzero" fill="rgb(84.3137%, 0%, 0%)" fill-opacity="0.5" d="M 27.898438 288 L 27.898438 261 L 27.855469 261 L 27.820312 260.996094 L 27.78125 260.992188 L 27.746094 260.988281 L 27.675781 260.972656 L 27.640625 260.960938 L 27.609375 260.953125 L 27.574219 260.9375 L 27.539062 260.925781 L 27.476562 260.894531 L 27.382812 260.835938 L 27.355469 260.816406 L 27.273438 260.746094 L 27.222656 260.695312 L 27.199219 260.664062 L 27.179688 260.636719 L 27.15625 260.609375 L 27.117188 260.546875 L 27.085938 260.484375 L 27.070312 260.449219 L 27.058594 260.417969 L 27.035156 260.347656 L 27.011719 260.242188 L 27 260.136719 L 27 207.855469 L 27.003906 207.820312 L 27.007812 207.78125 L 27.011719 207.746094 L 27.027344 207.675781 L 27.039062 207.640625 L 27.046875 207.609375 L 27.0625 207.574219 L 27.074219 207.539062 L 27.105469 207.476562 L 27.164062 207.382812 L 27.183594 207.355469 L 27.253906 207.273438 L 27.304688 207.222656 L 27.335938 207.199219 L 27.363281 207.179688 L 27.390625 207.15625 L 27.453125 207.117188 L 27.515625 207.085938 L 27.550781 207.070312 L 27.582031 207.058594 L 27.652344 207.035156 L 27.757812 207.011719 L 27.863281 207 L 27.898438 207 L 27.898438 180 L 0.863281 180 L 0.757812 180.011719 L 0.652344 180.035156 L 0.582031 180.058594 L 0.550781 180.070312 L 0.515625 180.085938 L 0.453125 180.117188 L 0.390625 180.15625 L 0.363281 180.179688 L 0.335938 180.199219 L 0.304688 180.222656 L 0.253906 180.273438 L 0.183594 180.355469 L 0.164062 180.382812 L 0.105469 180.476562 L 0.0742188 180.539062 L 0.0625 180.574219 L 0.046875 180.609375 L 0.0390625 180.640625 L 0.0273438 180.675781 L 0.0117188 180.746094 L 0.0078125 180.78125 L 0.00390625 180.820312 L 0 180.855469 L 0 287.136719 L 0.0117188 287.242188 L 0.0351562 287.347656 L 0.0585938 287.417969 L 0.0703125 287.449219 L 0.0859375 287.484375 L 0.117188 287.546875 L 0.15625 287.609375 L 0.179688 287.636719 L 0.199219 287.664062 L 0.222656 287.695312 L 0.273438 287.746094 L 0.355469 287.816406 L 0.382812 287.835938 L 0.476562 287.894531 L 0.539062 287.925781 L 0.574219 287.9375 L 0.609375 287.953125 L 0.640625 287.960938 L 0.675781 287.972656 L 0.746094 287.988281 L 0.78125 287.992188 L 0.820312 287.996094 L 0.855469 288 Z M 27.898438 207 L 72 207 L 72 180 L 27.898438 180 Z M 27.898438 288 L 72 288 L 72 261 L 27.898438 261 Z M 72 207 L 117 233.101562 L 117 232.019531 L 72 180 Z M 72 288 L 117 235.980469 L 117 234.898438 L 72 261 Z M 117 233.101562 L 207 233.101562 L 207 232.019531 L 117 232.019531 Z M 117 235.980469 L 207 235.980469 L 207 234.898438 L 117 234.898438 Z M 207 233.101562 L 207.1875 233.097656 L 207.363281 233.097656 L 207.539062 233.09375 L 207.882812 233.085938 L 208.042969 233.078125 L 208.214844 233.070312 L 208.414062 233.0625 L 208.5625 233.054688 L 208.746094 233.042969 L 208.9375 233.027344 L 209.089844 233.015625 L 209.273438 233 L 209.460938 232.984375 L 209.628906 232.96875 L 209.78125 232.953125 L 209.988281 232.929688 L 210.144531 232.910156 L 210.308594 232.890625 L 210.5 232.863281 L 210.65625 232.84375 L 210.835938 232.816406 L 211 232.792969 L 211.195312 232.761719 L 211.359375 232.734375 L 211.546875 232.699219 L 211.691406 232.675781 L 212.058594 232.605469 L 212.410156 232.535156 L 212.570312 232.5 L 212.75 232.457031 L 212.914062 232.421875 L 213.058594 232.386719 L 213.261719 232.339844 L 213.410156 232.300781 L 213.597656 232.253906 L 213.757812 232.210938 L 213.9375 232.160156 L 214.089844 232.117188 L 214.265625 232.070312 L 214.414062 232.023438 L 214.613281 231.964844 L 214.777344 231.914062 L 214.925781 231.867188 L 215.113281 231.804688 L 215.265625 231.757812 L 215.417969 231.707031 L 215.609375 231.640625 L 215.761719 231.585938 L 215.929688 231.523438 L 216.078125 231.46875 L 216.257812 231.402344 L 216.425781 231.335938 L 216.59375 231.273438 L 216.757812 231.207031 L 216.917969 231.140625 L 217.074219 231.078125 L 217.402344 230.9375 L 217.699219 230.804688 L 217.855469 230.734375 L 218.042969 230.648438 L 218.203125 230.574219 L 218.34375 230.503906 L 218.5 230.429688 L 218.648438 230.355469 L 218.832031 230.261719 L 218.976562 230.1875 L 219.121094 230.117188 L 219.285156 230.027344 L 219.453125 229.9375 L 219.601562 229.855469 L 219.742188 229.777344 L 219.898438 229.691406 L 220.035156 229.613281 L 220.207031 229.511719 L 220.34375 229.429688 L 220.488281 229.34375 L 220.648438 229.246094 L 220.816406 229.144531 L 220.945312 229.0625 L 221.09375 228.96875 L 221.242188 228.871094 L 221.382812 228.777344 L 221.542969 228.671875 L 221.691406 228.574219 L 221.824219 228.484375 L 221.957031 228.390625 L 222.113281 228.277344 L 222.253906 228.175781 L 222.40625 228.066406 L 222.535156 227.972656 L 222.691406 227.855469 L 222.824219 227.757812 L 222.949219 227.660156 L 223.109375 227.535156 L 223.367188 227.332031 L 223.515625 227.210938 L 223.648438 227.101562 L 223.785156 226.988281 L 223.902344 226.886719 L 224.03125 226.777344 L 224.1875 226.640625 L 224.296875 226.542969 L 224.4375 226.417969 L 224.566406 226.304688 L 224.6875 226.195312 L 224.824219 226.066406 L 224.964844 225.933594 L 225.074219 225.828125 L 225.207031 225.703125 L 225.320312 225.585938 L 225.449219 225.460938 L 225.578125 225.332031 L 225.707031 225.199219 L 225.816406 225.089844 L 225.957031 224.941406 L 226.074219 224.816406 L 226.191406 224.6875 L 226.300781 224.570312 L 226.417969 224.441406 L 226.527344 224.316406 L 226.65625 224.171875 L 226.761719 224.050781 L 226.878906 223.910156 L 226.992188 223.78125 L 227.109375 223.636719 L 227.210938 223.511719 L 227.332031 223.363281 L 227.4375 223.230469 L 227.535156 223.109375 L 227.652344 222.960938 L 227.757812 222.820312 L 227.855469 222.691406 L 227.980469 222.523438 L 228.078125 222.394531 L 228.175781 222.253906 L 228.28125 222.109375 L 228.386719 221.960938 L 228.480469 221.828125 L 228.585938 221.671875 L 228.6875 221.523438 L 228.773438 221.390625 L 228.875 221.234375 L 228.957031 221.109375 L 229.066406 220.941406 L 229.152344 220.804688 L 229.25 220.644531 L 229.332031 220.507812 L 229.417969 220.363281 L 229.507812 220.214844 L 229.601562 220.054688 L 229.695312 219.890625 L 229.78125 219.738281 L 229.863281 219.59375 L 229.941406 219.449219 L 230.023438 219.296875 L 230.105469 219.140625 L 230.1875 218.976562 L 230.277344 218.804688 L 230.347656 218.667969 L 230.429688 218.496094 L 230.503906 218.351562 L 230.582031 218.1875 L 230.648438 218.042969 L 230.726562 217.875 L 230.796875 217.722656 L 230.867188 217.5625 L 230.945312 217.386719 L 231.011719 217.226562 L 231.085938 217.054688 L 231.144531 216.910156 L 231.21875 216.730469 L 231.277344 216.585938 L 231.335938 216.429688 L 231.402344 216.253906 L 231.464844 216.097656 L 231.523438 215.933594 L 231.589844 215.753906 L 231.644531 215.59375 L 231.703125 215.425781 L 231.757812 215.257812 L 231.816406 215.085938 L 231.859375 214.949219 L 231.914062 214.777344 L 231.96875 214.601562 L 232.019531 214.429688 L 232.070312 214.265625 L 232.113281 214.101562 L 232.164062 213.929688 L 232.214844 213.746094 L 232.257812 213.574219 L 232.304688 213.398438 L 232.339844 213.25 L 232.382812 213.074219 L 232.425781 212.894531 L 232.460938 212.746094 L 232.503906 212.550781 L 232.535156 212.402344 L 232.574219 212.210938 L 232.605469 212.046875 L 232.636719 211.886719 L 232.675781 211.6875 L 232.703125 211.527344 L 232.730469 211.371094 L 232.765625 211.171875 L 232.789062 211.019531 L 232.816406 210.828125 L 232.839844 210.667969 L 232.863281 210.492188 L 232.886719 210.332031 L 232.910156 210.140625 L 232.929688 209.96875 L 232.949219 209.808594 L 232.964844 209.636719 L 232.984375 209.464844 L 233 209.269531 L 233.015625 209.101562 L 233.027344 208.9375 L 233.039062 208.757812 L 233.054688 208.5625 L 233.0625 208.402344 L 233.070312 208.226562 L 233.085938 207.882812 L 233.089844 207.695312 L 233.09375 207.527344 L 233.097656 207.339844 L 233.097656 207.160156 L 233.101562 207 L 232.019531 207 L 232.019531 207.324219 L 232.015625 207.503906 L 232.011719 207.667969 L 232.003906 207.847656 L 232 208.011719 L 231.992188 208.175781 L 231.984375 208.34375 L 231.976562 208.496094 L 231.964844 208.683594 L 231.949219 208.855469 L 231.9375 209.011719 L 231.925781 209.175781 L 231.90625 209.363281 L 231.875 209.691406 L 231.859375 209.84375 L 231.839844 210.011719 L 231.816406 210.195312 L 231.796875 210.347656 L 231.773438 210.515625 L 231.75 210.671875 L 231.722656 210.855469 L 231.699219 211 L 231.667969 211.191406 L 231.613281 211.496094 L 231.578125 211.683594 L 231.546875 211.839844 L 231.515625 211.992188 L 231.476562 212.175781 L 231.449219 212.320312 L 231.40625 212.507812 L 231.375 212.652344 L 231.332031 212.820312 L 231.292969 212.992188 L 231.257812 213.136719 L 231.214844 213.300781 L 231.167969 213.46875 L 231.121094 213.644531 L 231.074219 213.808594 L 231.03125 213.964844 L 230.984375 214.125 L 230.933594 214.289062 L 230.882812 214.457031 L 230.832031 214.617188 L 230.789062 214.75 L 230.734375 214.914062 L 230.679688 215.074219 L 230.625 215.238281 L 230.570312 215.390625 L 230.507812 215.5625 L 230.449219 215.722656 L 230.394531 215.871094 L 230.328125 216.039062 L 230.273438 216.1875 L 230.214844 216.328125 L 230.144531 216.5 L 230.089844 216.640625 L 230.019531 216.804688 L 229.953125 216.957031 L 229.878906 217.125 L 229.808594 217.28125 L 229.746094 217.425781 L 229.667969 217.585938 L 229.605469 217.722656 L 229.53125 217.878906 L 229.460938 218.019531 L 229.382812 218.183594 L 229.316406 218.316406 L 229.230469 218.480469 L 229.148438 218.640625 L 229.070312 218.785156 L 228.992188 218.933594 L 228.914062 219.070312 L 228.839844 219.210938 L 228.753906 219.355469 L 228.664062 219.515625 L 228.578125 219.667969 L 228.492188 219.8125 L 228.410156 219.949219 L 228.328125 220.078125 L 228.234375 220.230469 L 228.152344 220.363281 L 228.046875 220.527344 L 227.972656 220.644531 L 227.875 220.796875 L 227.789062 220.921875 L 227.691406 221.066406 L 227.589844 221.214844 L 227.5 221.34375 L 227.402344 221.484375 L 227.300781 221.625 L 227.203125 221.757812 L 227.113281 221.882812 L 226.992188 222.042969 L 226.898438 222.164062 L 226.796875 222.300781 L 226.6875 222.441406 L 226.59375 222.5625 L 226.492188 222.6875 L 226.375 222.828125 L 226.277344 222.949219 L 226.164062 223.085938 L 226.058594 223.210938 L 225.945312 223.34375 L 225.839844 223.460938 L 225.722656 223.597656 L 225.613281 223.71875 L 225.5 223.84375 L 225.398438 223.957031 L 225.171875 224.199219 L 225.035156 224.339844 L 224.933594 224.445312 L 224.8125 224.570312 L 224.453125 224.929688 L 224.328125 225.050781 L 224.222656 225.148438 L 224.085938 225.277344 L 223.953125 225.398438 L 223.839844 225.503906 L 223.71875 225.617188 L 223.582031 225.734375 L 223.476562 225.828125 L 223.328125 225.960938 L 223.203125 226.0625 L 223.089844 226.160156 L 222.957031 226.269531 L 222.832031 226.375 L 222.6875 226.488281 L 222.566406 226.589844 L 222.441406 226.6875 L 222.289062 226.804688 L 222.167969 226.898438 L 222.042969 226.992188 L 221.890625 227.105469 L 221.769531 227.195312 L 221.625 227.300781 L 221.488281 227.398438 L 221.339844 227.503906 L 221.210938 227.59375 L 221.082031 227.679688 L 220.941406 227.777344 L 220.789062 227.878906 L 220.652344 227.964844 L 220.507812 228.058594 L 220.367188 228.148438 L 220.085938 228.324219 L 219.929688 228.417969 L 219.792969 228.503906 L 219.664062 228.578125 L 219.496094 228.675781 L 219.363281 228.75 L 219.214844 228.835938 L 219.078125 228.910156 L 218.9375 228.988281 L 218.617188 229.160156 L 218.34375 229.300781 L 218.167969 229.390625 L 218.023438 229.460938 L 217.875 229.53125 L 217.738281 229.597656 L 217.585938 229.671875 L 217.40625 229.753906 L 217.257812 229.820312 L 217.113281 229.882812 L 216.972656 229.945312 L 216.816406 230.015625 L 216.65625 230.082031 L 216.507812 230.144531 L 216.351562 230.207031 L 216.199219 230.269531 L 216.039062 230.332031 L 215.875 230.394531 L 215.703125 230.457031 L 215.5625 230.507812 L 215.398438 230.570312 L 215.253906 230.621094 L 215.070312 230.683594 L 214.921875 230.730469 L 214.777344 230.78125 L 214.597656 230.839844 L 214.457031 230.882812 L 214.300781 230.929688 L 214.109375 230.988281 L 213.964844 231.03125 L 213.796875 231.078125 L 213.652344 231.121094 L 213.480469 231.167969 L 213.324219 231.207031 L 213.144531 231.253906 L 213 231.289062 L 212.808594 231.335938 L 212.671875 231.367188 L 212.511719 231.40625 L 212.339844 231.445312 L 212.183594 231.476562 L 212 231.515625 L 211.851562 231.546875 L 211.675781 231.578125 L 211.496094 231.613281 L 211.359375 231.636719 L 211.179688 231.667969 L 211.023438 231.695312 L 210.832031 231.726562 L 210.675781 231.75 L 210.503906 231.773438 L 210.355469 231.792969 L 210.171875 231.816406 L 210.015625 231.835938 L 209.867188 231.855469 L 209.667969 231.878906 L 209.519531 231.894531 L 209.359375 231.910156 L 209 231.941406 L 208.855469 231.949219 L 208.675781 231.964844 L 208.5 231.976562 L 208.355469 231.984375 L 208.164062 231.992188 L 208 232 L 207.84375 232.003906 L 207.679688 232.011719 L 207.515625 232.015625 L 207.347656 232.015625 L 207.179688 232.019531 L 207 232.019531 Z M 207 235.980469 L 207.210938 235.980469 L 207.402344 235.976562 L 207.597656 235.972656 L 207.980469 235.964844 L 208.15625 235.957031 L 208.347656 235.949219 L 208.570312 235.9375 L 208.738281 235.929688 L 208.9375 235.914062 L 209.148438 235.898438 L 209.320312 235.886719 L 209.523438 235.871094 L 209.734375 235.851562 L 209.917969 235.832031 L 210.089844 235.816406 L 210.320312 235.789062 L 210.492188 235.769531 L 210.675781 235.746094 L 210.886719 235.71875 L 211.058594 235.695312 L 211.257812 235.664062 L 211.441406 235.636719 L 211.660156 235.601562 L 211.839844 235.574219 L 212.046875 235.535156 L 212.207031 235.507812 L 212.414062 235.46875 L 212.617188 235.429688 L 212.789062 235.394531 L 213.003906 235.351562 L 213.183594 235.3125 L 213.382812 235.269531 L 213.570312 235.226562 L 213.726562 235.1875 L 213.953125 235.132812 L 214.117188 235.09375 L 214.324219 235.039062 L 214.503906 234.992188 L 214.703125 234.9375 L 214.871094 234.890625 L 215.066406 234.835938 L 215.234375 234.785156 L 215.453125 234.71875 L 215.636719 234.664062 L 215.800781 234.613281 L 216.007812 234.542969 L 216.175781 234.488281 L 216.347656 234.429688 L 216.558594 234.359375 L 216.726562 234.300781 L 216.917969 234.230469 L 217.082031 234.171875 L 217.28125 234.09375 L 217.46875 234.023438 L 217.65625 233.949219 L 217.832031 233.878906 L 218.011719 233.804688 L 218.1875 233.734375 L 218.371094 233.65625 L 218.550781 233.578125 L 218.714844 233.507812 L 218.878906 233.433594 L 219.054688 233.355469 L 219.261719 233.257812 L 219.4375 233.175781 L 219.597656 233.097656 L 219.769531 233.015625 L 219.933594 232.933594 L 220.140625 232.832031 L 220.300781 232.75 L 220.457031 232.664062 L 220.640625 232.570312 L 220.828125 232.46875 L 220.992188 232.378906 L 221.148438 232.289062 L 221.320312 232.195312 L 221.472656 232.105469 L 221.667969 231.996094 L 221.816406 231.90625 L 221.976562 231.808594 L 222.15625 231.703125 L 222.339844 231.585938 L 222.484375 231.496094 L 222.648438 231.394531 L 222.816406 231.285156 L 222.96875 231.183594 L 223.148438 231.0625 L 223.3125 230.953125 L 223.457031 230.851562 L 223.609375 230.75 L 223.78125 230.628906 L 223.9375 230.515625 L 224.109375 230.390625 L 224.25 230.289062 L 224.421875 230.15625 L 224.566406 230.046875 L 224.707031 229.941406 L 224.886719 229.800781 L 225.027344 229.691406 L 225.171875 229.574219 L 225.339844 229.441406 L 225.484375 229.320312 L 225.636719 229.191406 L 225.769531 229.082031 L 225.910156 228.960938 L 226.082031 228.808594 L 226.207031 228.703125 L 226.363281 228.5625 L 226.503906 228.433594 L 226.636719 228.3125 L 226.949219 228.023438 L 227.070312 227.90625 L 227.214844 227.765625 L 227.34375 227.640625 L 227.488281 227.496094 L 227.628906 227.351562 L 227.773438 227.207031 L 227.890625 227.085938 L 228.046875 226.921875 L 228.3125 226.640625 L 228.429688 226.507812 L 228.558594 226.367188 L 228.683594 226.226562 L 228.824219 226.066406 L 228.941406 225.929688 L 229.074219 225.777344 L 229.195312 225.632812 L 229.328125 225.472656 L 229.441406 225.335938 L 229.578125 225.167969 L 229.695312 225.023438 L 229.800781 224.886719 L 229.929688 224.722656 L 230.050781 224.566406 L 230.296875 224.238281 L 230.402344 224.09375 L 230.515625 223.9375 L 230.628906 223.777344 L 230.746094 223.613281 L 230.847656 223.464844 L 230.96875 223.292969 L 231.078125 223.125 L 231.175781 222.976562 L 231.289062 222.804688 L 231.378906 222.667969 L 231.5 222.480469 L 231.59375 222.328125 L 231.707031 222.148438 L 231.796875 221.996094 L 231.894531 221.839844 L 231.992188 221.671875 L 232.09375 221.496094 L 232.199219 221.3125 L 232.296875 221.140625 L 232.382812 220.980469 L 232.472656 220.824219 L 232.652344 220.480469 L 232.75 220.300781 L 232.847656 220.105469 L 232.921875 219.953125 L 233.097656 219.601562 L 233.183594 219.417969 L 233.257812 219.261719 L 233.34375 219.074219 L 233.421875 218.90625 L 233.5 218.730469 L 233.585938 218.53125 L 233.660156 218.355469 L 233.742188 218.164062 L 233.808594 218.003906 L 233.890625 217.804688 L 233.953125 217.644531 L 234.023438 217.46875 L 234.097656 217.277344 L 234.164062 217.101562 L 234.230469 216.917969 L 234.300781 216.71875 L 234.363281 216.542969 L 234.429688 216.355469 L 234.554688 215.980469 L 234.605469 215.824219 L 234.664062 215.636719 L 234.722656 215.441406 L 234.78125 215.25 L 234.835938 215.066406 L 234.886719 214.886719 L 234.941406 214.695312 L 234.996094 214.492188 L 235.046875 214.300781 L 235.09375 214.105469 L 235.136719 213.941406 L 235.230469 213.542969 L 235.269531 213.382812 L 235.316406 213.160156 L 235.351562 212.996094 L 235.398438 212.785156 L 235.46875 212.425781 L 235.507812 212.207031 L 235.539062 212.027344 L 235.570312 211.855469 L 235.609375 211.632812 L 235.632812 211.464844 L 235.667969 211.25 L 235.691406 211.070312 L 235.71875 210.878906 L 235.742188 210.699219 L 235.769531 210.488281 L 235.792969 210.296875 L 235.8125 210.117188 L 235.832031 209.929688 L 235.851562 209.738281 L 235.871094 209.519531 L 235.886719 209.332031 L 235.898438 209.152344 L 235.914062 208.953125 L 235.929688 208.734375 L 235.9375 208.554688 L 235.949219 208.363281 L 235.964844 207.980469 L 235.96875 207.773438 L 235.972656 207.585938 L 235.976562 207.375 L 235.980469 207.175781 L 235.980469 207 L 234.898438 207 L 234.898438 207.363281 L 234.894531 207.5625 L 234.890625 207.742188 L 234.882812 207.945312 L 234.878906 208.128906 L 234.871094 208.3125 L 234.859375 208.496094 L 234.851562 208.671875 L 234.835938 208.878906 L 234.824219 209.070312 L 234.808594 209.246094 L 234.792969 209.425781 L 234.773438 209.636719 L 234.757812 209.820312 L 234.738281 210 L 234.71875 210.171875 L 234.695312 210.359375 L 234.671875 210.5625 L 234.648438 210.734375 L 234.625 210.917969 L 234.597656 211.09375 L 234.566406 211.296875 L 234.542969 211.457031 L 234.503906 211.675781 L 234.476562 211.839844 L 234.445312 212.011719 L 234.40625 212.222656 L 234.375 212.398438 L 234.339844 212.570312 L 234.296875 212.773438 L 234.261719 212.933594 L 234.214844 213.144531 L 234.179688 213.300781 L 234.132812 213.492188 L 234.089844 213.683594 L 234.046875 213.839844 L 234 214.027344 L 233.953125 214.210938 L 233.898438 214.40625 L 233.847656 214.59375 L 233.796875 214.765625 L 233.746094 214.941406 L 233.691406 215.128906 L 233.632812 215.316406 L 233.574219 215.496094 L 233.527344 215.644531 L 233.46875 215.824219 L 233.40625 216.003906 L 233.34375 216.1875 L 233.285156 216.355469 L 233.214844 216.550781 L 233.148438 216.726562 L 233.085938 216.894531 L 233.015625 217.082031 L 232.949219 217.246094 L 232.886719 217.402344 L 232.808594 217.59375 L 232.746094 217.75 L 232.667969 217.933594 L 232.597656 218.101562 L 232.511719 218.292969 L 232.4375 218.464844 L 232.363281 218.625 L 232.277344 218.804688 L 232.207031 218.957031 L 232.125 219.132812 L 232.046875 219.289062 L 231.957031 219.472656 L 231.882812 219.617188 L 231.789062 219.804688 L 231.699219 219.980469 L 231.609375 220.144531 L 231.523438 220.308594 L 231.4375 220.460938 L 231.351562 220.617188 L 231.257812 220.78125 L 231.160156 220.957031 L 231.058594 221.125 L 230.964844 221.285156 L 230.875 221.4375 L 230.785156 221.585938 L 230.679688 221.753906 L 230.585938 221.902344 L 230.472656 222.082031 L 230.386719 222.214844 L 230.277344 222.382812 L 230.183594 222.523438 L 230.074219 222.683594 L 229.960938 222.851562 L 229.859375 222.992188 L 229.75 223.152344 L 229.636719 223.308594 L 229.53125 223.457031 L 229.429688 223.59375 L 229.292969 223.777344 L 229.191406 223.910156 L 229.074219 224.0625 L 228.953125 224.21875 L 228.847656 224.351562 L 228.734375 224.492188 L 228.605469 224.652344 L 228.496094 224.785156 L 228.367188 224.9375 L 228.25 225.078125 L 228.125 225.226562 L 228.011719 225.355469 L 227.875 225.507812 L 227.757812 225.644531 L 227.628906 225.78125 L 227.515625 225.90625 L 227.390625 226.042969 L 227.261719 226.179688 L 227.113281 226.335938 L 226.996094 226.457031 L 226.859375 226.59375 L 226.722656 226.734375 L 226.585938 226.871094 L 226.460938 226.992188 L 226.320312 227.128906 L 226.203125 227.238281 L 226.054688 227.378906 L 225.90625 227.515625 L 225.777344 227.636719 L 225.640625 227.757812 L 225.492188 227.894531 L 225.371094 227.996094 L 225.207031 228.140625 L 225.070312 228.257812 L 224.941406 228.363281 L 224.796875 228.488281 L 224.65625 228.601562 L 224.496094 228.734375 L 224.355469 228.84375 L 224.21875 228.953125 L 224.046875 229.085938 L 223.914062 229.1875 L 223.773438 229.296875 L 223.605469 229.421875 L 223.46875 229.519531 L 223.308594 229.636719 L 223.15625 229.746094 L 222.988281 229.863281 L 222.84375 229.964844 L 222.703125 230.058594 L 222.546875 230.167969 L 222.375 230.28125 L 222.226562 230.378906 L 222.0625 230.484375 L 221.90625 230.585938 L 221.765625 230.671875 L 221.589844 230.78125 L 221.421875 230.882812 L 221.265625 230.976562 L 221.121094 231.0625 L 220.933594 231.171875 L 220.789062 231.253906 L 220.621094 231.347656 L 220.46875 231.433594 L 220.3125 231.519531 L 220.132812 231.617188 L 219.957031 231.710938 L 219.804688 231.789062 L 219.453125 231.964844 L 219.292969 232.046875 L 219.128906 232.125 L 218.976562 232.199219 L 218.804688 232.28125 L 218.605469 232.371094 L 218.4375 232.449219 L 218.117188 232.589844 L 217.945312 232.664062 L 217.769531 232.738281 L 217.601562 232.808594 L 217.429688 232.878906 L 217.257812 232.945312 L 216.898438 233.085938 L 216.703125 233.15625 L 216.546875 233.214844 L 216.363281 233.28125 L 216.203125 233.339844 L 216 233.410156 L 215.835938 233.464844 L 215.675781 233.515625 L 215.472656 233.582031 L 215.3125 233.632812 L 215.140625 233.6875 L 214.925781 233.75 L 214.765625 233.796875 L 214.578125 233.851562 L 214.417969 233.894531 L 214.226562 233.949219 L 214.050781 233.996094 L 213.851562 234.046875 L 213.691406 234.085938 L 213.476562 234.136719 L 213.324219 234.175781 L 213.148438 234.214844 L 212.953125 234.257812 L 212.78125 234.292969 L 212.574219 234.335938 L 212.410156 234.371094 L 212.210938 234.410156 L 212.015625 234.445312 L 211.859375 234.472656 L 211.660156 234.507812 L 211.484375 234.535156 L 211.273438 234.570312 L 211.097656 234.597656 L 210.910156 234.625 L 210.742188 234.648438 L 210.539062 234.675781 L 210.363281 234.695312 L 210.195312 234.714844 L 209.976562 234.742188 L 209.8125 234.757812 L 209.632812 234.777344 L 209.429688 234.792969 L 209.230469 234.8125 L 209.070312 234.824219 L 208.867188 234.835938 L 208.671875 234.851562 L 208.511719 234.859375 L 208.296875 234.871094 L 208.113281 234.878906 L 207.941406 234.882812 L 207.757812 234.890625 L 207.578125 234.894531 L 207.386719 234.898438 L 207 234.898438 Z M 233.101562 207 L 233.101562 117 L 232.019531 117 L 232.019531 207 Z M 235.980469 207 L 235.980469 117 L 234.898438 117 L 234.898438 207 Z M 233.101562 117 L 207 72 L 180 72 L 232.019531 117 Z M 235.980469 117 L 288 72 L 261 72 L 234.898438 117 Z M 207 72 L 207 27.898438 L 180 27.898438 L 180 72 Z M 288 72 L 288 27.898438 L 261 27.898438 L 261 72 Z M 180 27.898438 L 207 27.898438 L 207 27.855469 L 207.003906 27.820312 L 207.007812 27.78125 L 207.011719 27.746094 L 207.027344 27.675781 L 207.039062 27.640625 L 207.046875 27.609375 L 207.0625 27.574219 L 207.074219 27.539062 L 207.105469 27.476562 L 207.164062 27.382812 L 207.183594 27.355469 L 207.253906 27.273438 L 207.304688 27.222656 L 207.335938 27.199219 L 207.363281 27.179688 L 207.390625 27.15625 L 207.453125 27.117188 L 207.515625 27.085938 L 207.550781 27.070312 L 207.582031 27.058594 L 207.652344 27.035156 L 207.757812 27.011719 L 207.863281 27 L 260.144531 27 L 260.179688 27.003906 L 260.21875 27.007812 L 260.253906 27.011719 L 260.324219 27.027344 L 260.359375 27.039062 L 260.390625 27.046875 L 260.425781 27.0625 L 260.460938 27.074219 L 260.523438 27.105469 L 260.617188 27.164062 L 260.644531 27.183594 L 260.726562 27.253906 L 260.777344 27.304688 L 260.800781 27.335938 L 260.820312 27.363281 L 260.84375 27.390625 L 260.882812 27.453125 L 260.914062 27.515625 L 260.929688 27.550781 L 260.941406 27.582031 L 260.964844 27.652344 L 260.988281 27.757812 L 261 27.863281 L 261 27.898438 L 288 27.898438 L 288 0.863281 L 287.988281 0.757812 L 287.964844 0.652344 L 287.941406 0.582031 L 287.929688 0.550781 L 287.914062 0.515625 L 287.882812 0.453125 L 287.84375 0.390625 L 287.820312 0.363281 L 287.800781 0.335938 L 287.777344 0.304688 L 287.726562 0.253906 L 287.644531 0.183594 L 287.617188 0.164062 L 287.523438 0.105469 L 287.460938 0.0742188 L 287.425781 0.0625 L 287.390625 0.046875 L 287.359375 0.0390625 L 287.324219 0.0273438 L 287.253906 0.0117188 L 287.21875 0.0078125 L 287.179688 0.00390625 L 287.144531 0 L 180.863281 0 L 180.757812 0.0117188 L 180.652344 0.0351562 L 180.582031 0.0585938 L 180.550781 0.0703125 L 180.515625 0.0859375 L 180.453125 0.117188 L 180.390625 0.15625 L 180.363281 0.179688 L 180.335938 0.199219 L 180.304688 0.222656 L 180.253906 0.273438 L 180.183594 0.355469 L 180.164062 0.382812 L 180.105469 0.476562 L 180.074219 0.539062 L 180.0625 0.574219 L 180.046875 0.609375 L 180.039062 0.640625 L 180.027344 0.675781 L 180.011719 0.746094 L 180.007812 0.78125 L 180.003906 0.820312 L 180 0.855469 Z M 180 27.898438 "/>
</svg>
